# xmcd
#
# Track frame offsets:
#	150
#	14546
#	31349
#	49496
#	67152
#	83855
#	106452
#	130977
#	145562
#	160011
#	177279
#	193585
#	207979
#	219099
#	232710
#	247017
#	264590
#	279753
#	296021
#	318028
#	333576
#
# Disc length: 4703 seconds
#
# Revision: 1
# Processed by: cddbd v1.4PL0 Copyright (c) Steve Scherf et al.
# Submitted via: audiograbber 1.81.03
#
DISCID=30125d15
DTITLE=Pink - Try This
DYEAR=2003
DGENRE=Pop/Funk
TTITLE0=Troubl
TTITLE1=God Is A DJ
TTITLE2=Last To Know
TTITLE3=Tonights The Night
TTITLE4=Oh My God (Feat Peaches)
TTITLE5=Catch Me While I'm Sleeping
TTITLE6=Waiting For Love
TTITLE7=Save My Life
TTITLE8=Try Too Hard
TTITLE9=Humble Neighborhoods
TTITLE10=Walk Away
TTITLE11=Unwind
TTITLE12=Love Song
TTITLE13=(Hidden Track)
TTITLE14=Get My Party Started (Bonus)
TTITLE15=Just Like A Pill (Bonus)
TTITLE16=There You Go (Bonus)
TTITLE17=Missundaztood (Bonus)
TTITLE18=Family Portrait (Bonus)
TTITLE19=Don't Let Me Get Me (Bonus)
TTITLE20=Lonely Girl (Bonus)
EXTD=
EXTT0=Solo Wip
EXTT1=Solo Wip
EXTT2=Solo Wip
EXTT3=Solo Wip
EXTT4=Solo Wip
EXTT5=
EXTT6=
EXTT7=
EXTT8=
EXTT9=
EXTT10=
EXTT11=
EXTT12=
EXTT13=
EXTT14=
EXTT15=
EXTT16=
EXTT17=
EXTT18=
EXTT19=
EXTT20=
PLAYORDER=
